<?xml version="1.0" encoding="ISO-8859-1" standalone="no"?>
<!DOCTYPE svg PUBLIC "-//W3C//DTD SVG 20010904//EN"
"http://www.w3.org/TR/2001/REC-SVG-20010904/DTD/svg10.dtd">
<svg xmlns="http://www.w3.org/2000/svg"
 xmlns:xlink="http://www.w3.org/1999/xlink" xml:space="preserve"
 width="1000px" height="1000px"
 viewBox="0 0 1000 1000" >
 <line style="stroke:gray;stroke-width:1;" x1="0.0" y1="1000.0" x2="500.0" y2="500.0" />
 <line style="stroke:gray;stroke-width:1;" x1="500.0" y1="500.0" x2="1000.0" y2="0.0" />
 <line style="stroke:gray;stroke-width:1;" x1="1000.0" y1="0.0" x2="833.3333333290648" y2="0.0" />
 <line style="stroke:gray;stroke-width:1;" x1="666.6666666662787" y1="0.0" x2="833.3333333290648" y2="0.0" />
 <line style="stroke:gray;stroke-width:1;" x1="0.0" y1="1000.0" x2="0.0" y2="833.3333333370683" />
 <line style="stroke:gray;stroke-width:1;" x1="0.0" y1="666.6666666659876" x2="0.0" y2="833.3333333370683" />
 <line style="stroke:gray;stroke-width:1;" x1="500.0" y1="500.0" x2="416.6666666665333" y2="416.6666666665333" />
 <line style="stroke:gray;stroke-width:1;" x1="0.0" y1="833.3333333370683" x2="416.6666666665333" y2="416.6666666665333" />
 <line style="stroke:gray;stroke-width:1;" x1="416.6666666665333" y1="416.6666666665333" x2="833.3333333290648" y2="0.0" />
 <line style="stroke:gray;stroke-width:1;" x1="0.0" y1="1000.0" x2="166.66666666649684" y2="1000.0" />
 <line style="stroke:gray;stroke-width:1;" x1="333.3333333331392" y1="1000.0" x2="166.66666666649684" y2="1000.0" />
 <line style="stroke:gray;stroke-width:1;" x1="1000.0" y1="0.0" x2="1000.0" y2="166.66666666656965" />
 <line style="stroke:gray;stroke-width:1;" x1="1000.0" y1="333.3333333331392" x2="1000.0" y2="166.66666666656965" />
 <line style="stroke:gray;stroke-width:1;" x1="500.0" y1="500.0" x2="583.3333333332666" y2="583.3333333332666" />
 <line style="stroke:gray;stroke-width:1;" x1="166.6666666664969" y1="1000.0" x2="583.3333333332666" y2="583.3333333332666" />
 <line style="stroke:gray;stroke-width:1;" x1="583.3333333332666" y1="583.3333333332666" x2="1000.0" y2="166.66666666656965" />
 <line style="stroke:gray;stroke-width:1;" x1="0.0" y1="422.64973081003603" x2="113.69379246733433" y2="274.48109573213617" />
 <line style="stroke:gray;stroke-width:1;" x1="0.0" y1="422.64973081003603" x2="0.0" y2="0.0" />
 <line style="stroke:gray;stroke-width:1;" x1="113.69379246733433" y1="274.48109573213617" x2="0.0" y2="0.0" />
 <line style="stroke:gray;stroke-width:1;" x1="422.6497308103741" y1="0.0" x2="0.0" y2="0.0" />
 <line style="stroke:gray;stroke-width:1;" x1="422.6497308103741" y1="0.0" x2="274.4810957322614" y2="113.69379246733061" />
 <line style="stroke:gray;stroke-width:1;" x1="0.0" y1="0.0" x2="274.4810957322614" y2="113.69379246733061" />
 <line style="stroke:gray;stroke-width:1;" x1="577.3502691892376" y1="1000.0" x2="725.5189042672441" y2="886.3062075326394" />
 <line style="stroke:gray;stroke-width:1;" x1="577.3502691892376" y1="1000.0" x2="1000.0" y2="1000.0" />
 <line style="stroke:gray;stroke-width:1;" x1="725.5189042672441" y1="886.3062075326394" x2="1000.0" y2="1000.0" />
 <line style="stroke:gray;stroke-width:1;" x1="1000.0" y1="1000.0" x2="1000.0" y2="577.3502691897679" />
 <line style="stroke:gray;stroke-width:1;" x1="1000.0" y1="1000.0" x2="886.3062075326523" y2="725.5189042676968" />
 <line style="stroke:gray;stroke-width:1;" x1="1000.0" y1="577.3502691897679" x2="886.3062075326523" y2="725.5189042676968" />
 <line style="stroke:gray;stroke-width:1;" x1="1000.0" y1="333.3333333331392" x2="1000.0" y2="474.2165769368311" />
 <line style="stroke:gray;stroke-width:1;" x1="1000.0" y1="577.3502691897679" x2="1000.0" y2="474.2165769368311" />
 <line style="stroke:gray;stroke-width:1;" x1="333.3333333331392" y1="1000.0" x2="474.21657693644914" y2="1000.0" />
 <line style="stroke:gray;stroke-width:1;" x1="577.3502691892376" y1="1000.0" x2="474.21657693644914" y2="1000.0" />
 <line style="stroke:gray;stroke-width:1;" x1="333.3333333331393" y1="1000.0" x2="666.6666666630854" y2="666.6666666700539" />
 <line style="stroke:gray;stroke-width:1;" x1="1000.0" y1="333.3333333331393" x2="666.6666666630852" y2="666.6666666700542" />
 <line style="stroke:gray;stroke-width:1;" x1="583.3333333332666" y1="583.3333333332666" x2="666.666666665636" y2="666.6666666656361" />
 <line style="stroke:gray;stroke-width:1;" x1="577.3502691892376" y1="1000.0" x2="666.6666666673502" y2="666.6666666626667" />
 <line style="stroke:gray;stroke-width:1;" x1="725.5189042672441" y1="886.3062075326394" x2="666.6666666657891" y2="666.6666666653708" />
 <line style="stroke:gray;stroke-width:1;" x1="1000.0" y1="1000.0" x2="666.6666666656361" y2="666.6666666656361" />
 <line style="stroke:gray;stroke-width:1;" x1="1000.0" y1="577.3502691897679" x2="666.6666666646463" y2="666.6666666673501" />
 <line style="stroke:gray;stroke-width:1;" x1="886.3062075326523" y1="725.5189042676968" x2="666.6666666652587" y2="666.6666666662894" />
 <line style="stroke:gray;stroke-width:1;" x1="1000.0000000000045" y1="474.21657693682846" x2="666.6666666646463" y2="666.6666666673501" />
 <line style="stroke:gray;stroke-width:1;" x1="474.2165769364465" y1="1000.0000000000045" x2="666.6666666646463" y2="666.6666666673501" />
 <line style="stroke:gray;stroke-width:1;" x1="0.0" y1="666.6666666659876" x2="0.0" y2="525.7834230629624" />
 <line style="stroke:gray;stroke-width:1;" x1="0.0" y1="422.64973081003603" x2="0.0" y2="525.7834230629624" />
 <line style="stroke:gray;stroke-width:1;" x1="666.6666666662787" y1="0.0" x2="525.7834230631761" y2="0.0" />
 <line style="stroke:gray;stroke-width:1;" x1="422.6497308103741" y1="0.0" x2="525.7834230631761" y2="0.0" />
 <line style="stroke:gray;stroke-width:1;" x1="0.0" y1="666.6666666659876" x2="333.33333333306587" y2="333.3333333330674" />
 <line style="stroke:gray;stroke-width:1;" x1="666.6666666662786" y1="0.0" x2="333.3333333330655" y2="333.3333333330677" />
 <line style="stroke:gray;stroke-width:1;" x1="416.6666666665333" y1="416.6666666665333" x2="333.33333333306643" y2="333.33333333306643" />
 <line style="stroke:gray;stroke-width:1;" x1="0.0" y1="422.64973081003603" x2="333.3333333330662" y2="333.33333333306666" />
 <line style="stroke:gray;stroke-width:1;" x1="113.69379246733433" y1="274.48109573213617" x2="333.3333333330663" y2="333.33333333306655" />
 <line style="stroke:gray;stroke-width:1;" x1="422.6497308103741" y1="0.0" x2="333.3333333336981" y2="333.3333333319722" />
 <line style="stroke:gray;stroke-width:1;" x1="0.0" y1="0.0" x2="333.3333333330663" y2="333.3333333330663" />
 <line style="stroke:gray;stroke-width:1;" x1="274.48109573226134" y1="113.69379246733061" x2="333.33333333306643" y2="333.33333333306626" />
 <line style="stroke:gray;stroke-width:1;" x1="0.0" y1="525.7834230629624" x2="333.3333333330662" y2="333.33333333306666" />
 <line style="stroke:gray;stroke-width:1;" x1="333.3333333330662" y1="333.33333333306666" x2="525.7834230631761" y2="0.0" />
</svg>